<svg version="1" xmlns="http://www.w3.org/2000/svg" width="1515" height="796" viewBox="0 0 1136 597">
    <title>Haggis</title>
    <metadata id="license"
            xmlns:rdf="http://www.w3.org/1999/02/22-rdf-syntax-ns#"
            xmlns:dc="http://purl.org/dc/elements/1.1/"
            xmlns:cc="http://creativecommons.org/ns#">
    <rdf:RDF>
      <cc:Work rdf:about="">
        <dc:format>image/svg+xml</dc:format>
        <dc:type rdf:resource="http://purl.org/dc/dcmitype/StillImage" />
        <cc:license rdf:resource="http://creativecommons.org/licenses/by-sa/4.0/"/>
        <cc:attributionName>David Baynard</cc:attributionName>
      </cc:Work>
      <cc:License rdf:about="http://creativecommons.org/licenses/by-sa/4.0/">
        <cc:legalcode rdf:resource="http://creativecommons.org/licenses/by-sa/4.0/legalcode" />
        <cc:permits rdf:resource="http://creativecommons.org/ns#Reproduction" />
        <cc:permits rdf:resource="http://creativecommons.org/ns#Distribution" />
        <cc:requires rdf:resource="http://creativecommons.org/ns#Notice" />
        <cc:requires rdf:resource="http://creativecommons.org/ns#Attribution" />
        <cc:permits rdf:resource="http://creativecommons.org/ns#DerivativeWorks" />
        <cc:requires rdf:resource="http://creativecommons.org/ns#ShareAlike" />
      </cc:License>
    </rdf:RDF>
    </metadata>
    <path d="M500 0l-5 1-29 6h-10a179 179 0 0 0-78 7l-20 4a212 212 0 0 1-25 3l-22 5-11 2a995 995 0 0 1-61 28 573 573 0 0 0-49 23l-7 3c-2 0-5 1-7 3l-2 3-2-3-7-8c-4-5-6-6-11-7-5-2-5-2-7 0s-2 2 1 9l3 11c0 5 0 5-4 8l-8 6a287 287 0 0 0-26 18c-2 0-4 1-14 10l-10 7-10 11-10 13c-4 6-9 12-9 14l-4 7-4 7-2 3-2 5-4 8-4 8-5 9-3 10c0 4-7 13-12 14-2 1-3 2-4 7l-3 8-1 4c1 2-1 22-2 29l-2 13c-1 14-2 17-5 20l-3 1 1 28a308 308 0 0 0 3 40c2 11 5 14 8 9 3-2 5-2 6 0l2 2c2 0 6-8 7-13a415 415 0 0 1 6-30c0-9 1-15 2-15 2 0 3 2 6 10 4 11 4 13 8 18l11 14c20 23 29 30 43 40l20 14c6 5 18 11 25 12a233 233 0 0 1 19 4l8 2c4 2 7 2 12 2h15l13 1h9l29 2c18 0 20 1 20 3s-8 12-15 19c-4 4-5 6-1 9l2 2 4-2 10-8c14-13 19-17 20-16s1 3-2 7l-11 28-2 7-5 10c-2 8-2 11 2 11l10 2c4 0 6-1 13-8l3-2 3-3 5-9 4-9a785 785 0 0 1 24-41c12-5 18-7 19-6 1 2 0 4-14 34l-12 17c-5 7-7 10-7 12l-1 4-6 8-5 9a111 111 0 0 0-11 23c-2 2-7 15-7 18s3 6 7 6l7 2c3 0 4 0 7-4 5-5 8-10 11-18a101 101 0 0 1 13-22c4-4 6-7 10-15l4-8 5-7 8-14 3-7 4-8 8-18 2-4 1-3 2-5c2-3 3-4 5-4s13-4 20-8l4-1 3-2c4-3 15-6 24-7l10-2 15-1a128 128 0 0 0 45-9l6-2 17-3 10-2 16-1 15-2c4-3 15-4 29-4l12-2h7c4 1 7 1 12-1 5-1 37 1 45 3l16 2c13 0 25 0 32 2l24 3a111 111 0 0 1 22 4c7 0 16 3 17 5l-3 5-4 7-4 7-5 7c-6 12-12 21-15 25-5 5-6 11-3 13 2 2 4 2 10 2l10-2c4-2 15-13 17-18l5-6 1-3 2-4 7-12 8-13 3-3 3 2c4 2 4 4 2 12-2 11-15 34-28 50l-9 14-12 14-4 6c-3 7-6 10-17 19-9 8-14 19-9 20l6 1 4 1c1 3 4 3 8 1l7-3c4-1 13-9 22-20a114 114 0 0 0 9-12 332 332 0 0 0 52-82l4-8 1-3c1-2 2-2 9-2l10 1 10 2c9 0 15 1 22 3a120 120 0 0 0 15 3l17 2c6 1 12-1 28-5a392 392 0 0 1 32-10l14-6c4-1 9-4 11-6l7-4 4-2 4-2 3-1 8-4c7-4 22-17 26-24l9-11c9-11 14-19 15-26l3-8 1-3 3-8c7-13 8-18 7-20-1-1 0-3 1-5l3-23c0-4 1-5 5-8l5-7 3-8c4-10 2-14-7-15-6-1-7-2-7-7l-1-8-1-13-1-11-1-8a142 142 0 0 0-7-34l-5-9-6-10a436 436 0 0 0-57-54c-8-7-14-11-22-13l-8-2-8-3-10-4-24-7-1-3c0-2-1-3-5-6-7-5-13-7-31-8-13-1-16-1-19-3-12-8-29-13-39-13l-10-2-12-2-13-2-14-2c-22-2-35-4-39-6l-10-2-15-2a237 237 0 0 0-36-1c-1 2-3 2-7 1-9-4-18-6-37-9a515 515 0 0 0-87-5 876 876 0 0 0-76-3l-18-1zm19 6l24 1 20 1 21 2 22 1c3 2 4 2 8 1l31-1a152 152 0 0 1 47 4l6 1 7 2 10 3 11 2a344 344 0 0 1 57 4c5 0 8 1 10 3s9 5 14 6l22 10c3 2 3 2 7 1l4-2c0-2-4-5-6-5s-8-4-8-6h2l10 1 12 2 11 2 12 2 8 2 5 1 7 2c9 3 15 6 18 9 2 3 3 4 5 3 7-1 32 0 35 2 3 1 3 4 0 5l-8 5a536 536 0 0 1-16 10l-10 5a212 212 0 0 1-46 14c-3 1-5 0-5-3 0-2 0-2-9 1l-6 3-5 1-4 2c-1 4-28 16-32 16-2-1-3 0-5 1l-5 2c-3 0-4 0-5 2a1129 1129 0 0 0-20 15c-12 9-29 19-33 19-3 0-12 5-14 8l-7 4-9 4-7 2-4 2-4 2-3 2c-6 5-9 8-25 16a377 377 0 0 0-29 14l-8 2-5 1-7 2c-6 0-6 0-7 2 0 3-2 4-6 6l-7 5-8 4c-9 4-15 8-23 14l-9 6-5 4-3 2-3 2-3 2-3 2-8 4-11 7-7 3-3 2-19 6-9 3h-9c-2-1-3-1-6 1l-4 2-2 1a110 110 0 0 1-36 29l-12 6a253 253 0 0 1-21 15c-8 6-19 12-24 13-7 3-2 8 6 6l4-1c2 2-21 42-26 46-2 1-11 16-14 20-1 4-7 12-11 18a217 217 0 0 0-13 18l-4 4-7 7-3 2a86 86 0 0 1 13-26l4-6 3-5 4-6 4-6 3-5 3-6 2-4 5-6 6-11c3-7 3-9 1-9l-10 10-9 10c-1 0-1-3 1-7l2-11 1-12a229 229 0 0 0 1-52l1-8 2-7c2-6 2-6 0-9l-2-4-3-6-4-4-2-7-4-16-2-15c-1-5 0-5 7-5 8 0 16-2 17-4l2-3c2-1 2-1 1-2l-6-1c-4 1-7 1-22-1l-16-1c-7 0-10-1-12-2-3-2-11-4-16-5v-5l5-1 9-1 10-2c4 0 5-1 5-3 0-3-2-5-10-6-4-1-6 0-9 1l-13 3c-7 0-8 0-9-2s-3-2-10 0c-8 3-16 3-21 0l-6-4c-4-3-3-4 2-4 12 0 9-5-7-10-6-3-7-3-10-1-6 2-21 2-32-1-12-3-20-7-29-16-12-10-14-12-17-12l-4 2-7 7a234 234 0 0 0-24 18l-11 8c-3 4-6 5-8 3h-2l-3 7c-6 9-10 18-10 20l-8 18a420 420 0 0 0-18 36l-6 10-2 3c-2 4-2 6 1 6 2-1 2-1 2 2l-2 6a163 163 0 0 1-7 25 188 188 0 0 1-10 25c-2 3-2 3 0 5v4l-1 6c0 5-1 9-2 8s-2-5-2-27c-1-16-1-18 1-20l2-10 2-13 2-20a109 109 0 0 1 3-25c1-6 2-8 4-9l9-10 7-8 1 6c-1 4-1 5 1 6h2l3-10a127 127 0 0 1 6-19l11-21 5-9 6-6 8-6 12-8 8-7c4-3 5-5 5-8 0-4-1-4-5-1a1123 1123 0 0 1-35 26c-9 8-9 8-8 5 0-2 1-5 3-7l2-4 6-7c7-7 14-15 14-17l5-3 8-7 8-7 9-7 8-5 7-4 8-5 4-1 3-2c1 0 1 2-3 12-2 6-2 7 0 7s4-3 8-15c3-11 3-12 3-24V78c2-1 11 9 12 12l5 8c3 2 5 7 6 10l4 8c2 3 2 3 4 2l2-3-7-17c-2-4-3-5-2-6l10-6a534 534 0 0 0 76-37l4-2 8-4 7-4 3-2 5-1c2 1 7 0 12-2 4-3 18-7 23-8 4 0 6 0 7 2h8l13-3 25-6 9-2 9-2 12-2c5-2 8-2 26-2 19 0 20 0 22 2s2 2 7 1l9-3 9-2c5-2 17-3 26-4l9 1zm453 69l9 2 6 2 14 5 15 5 8 4 4 2 15 12 6 6 19 16 13 14c15 15 21 24 23 35l5 26 2 24v30c0 7-3 22-5 26-3 5-2 6 2 6h4v7l-1 11-3 9a131 131 0 0 1-10 35c-2 8-9 22-11 24l-5 6-28 26-17 10-17 9-12 6-12 5-6 2-6 2-20 6-7 2c-4 2-8 2-19 2-13 0-23-2-32-6l-13-1c-9-1-24-2-28-4-1 0-1-4 1-10 4-14 0-28-4-17-2 4-2 5-1 8 2 3 1 6-4 17l-2 5-1 3-6 10-6 11-2 5-4 6a71 71 0 0 1-11 19 203 203 0 0 1-21 30l-8 11-7 8c-3 5-12 15-17 19l-8 2 4-4c3-2 5-3 5-5 0-3-3-4-6-1l-4 2-5 2c-2 3-4 2-2 0l6-8 6-6c3 0 11-10 17-21l4-4 12-16 6-8 5-6 3-5 3-5 3-5 11-22 2-12c1-9 4-20 5-21l2-9v-7l-3-1c-4-2-4-2-5 7 0 7-2 15-4 19l-2 2-5-2-7-4-20-4c-12 0-22-1-28-3l-14-2a168 168 0 0 1-25-3l-14-2c-8-1-13-2-31-2l-22-2h-38a1257 1257 0 0 1-63 6l-16 2-16 2c-10 0-19 2-23 5l-20 5-6 1-11 1c-10 0-17 1-25 3l-14 4c-9 1-27 7-33 10-5 2-5 0-2-6l2-6 2-3c3-5 0-11-4-11l-2 4-2 6-2 5-5 11-4 10-3 7-4 12-6 13-9 18-13 23-13 21c-2 6-15 27-18 31-4 5-7 5-3 0 4-4 2-10-2-10-2 0-2 0 0-4a365 365 0 0 1 28-49c7-7 11-13 11-19l4-11a96 96 0 0 0 14-29c2-12 3-15 5-17 1-2 4-10 4-14 0-2-3-5-5-4l-1 2-2 10-5 11c0 2-2 5-3 5l-22 9-6 2c-3 1-3-2 1-7l4-7 3-5 2-2 3-5a417 417 0 0 0 15-21l10-16 9-15 4-6c3-3 10-19 11-23 0-3 1-5 4-6l8-6 8-5 10-5 7-5 4-3 7-4 11-8 7-6 7-6c5-5 6-6 9-6l16-4a105 105 0 0 1 18-5l9-3 5-2 4-2 4-2 4-2 4-2 4-2 6-4 9-7 6-4 2-1 6-4 6-4 4-2 9-6 4-2 7-5 5-3 4-2 9-5 8-3a109 109 0 0 0 31-12l5-3c3-3 16-9 18-9l12-5 15-8 8-4 23-7c6-1 7-2 7-4l3-4 11-7c1-1 3-3 5-3l7-5 5-4 5-3c3-4 5-5 15-11 2-2 5-3 7-3l9-2c2-2 7-3 9-4l25-13c2-2 7-3 10-4a247 247 0 0 0 25-5l9-2 26-8c2 0 8-2 23-10l9-6c4-4 4-4 10-3l13 1zM140 176c3 4 19 16 24 18l5 3c3 4 9 6 16 6 22 2 22 2 31 9a87 87 0 0 0 38 14h14l5 4 9 6c4 3 17 7 19 7 4 0 12 9 13 14 2 16 9 37 14 45 4 5 4 10 2 13-2 2-2 6-3 19v18l-1 8-3 18-4 25-1 8c1 1 1 3-1 6-4 7-11 18-16 23-3 2-5 6-5 7l-3 5c-2 0-4 3-6 6l-5 6a421 421 0 0 1-65-2h-13l-16-2-12-1-22-6c-9-2-21-7-29-14l-19-13-10-7a465 465 0 0 1-40-43c-5-6-8-13-13-31-4-11-4-15 0-30l2-6a978 978 0 0 0 15-38 109 109 0 0 0 13-26l8-24c0-3 4-10 5-10l19-13 10-7 11-10c5-5 10-10 11-9l3 4zm-80 18c-1 2-3 3-3 1l3-3v2zm1068 62c1 2 1 2-2 10-4 9-7 14-9 13s-2-3 1-10l1-7c0-6 4-9 9-6zM43 294l-4 5c-1-1 2-6 3-6l1 1zm286 128l-4 7-4 6-4 6-5 8c-3 4-9 11-11 11s-1-4 6-12l6-10 10-13c4-5 6-5 6-3zm480 9l3 2-5 10a73 73 0 0 0-8 16l-5 7-8 13c-1 1-2 0-2-1-2-4-5-3-11 4-7 8-9 9-9 6 0-2 2-4 4-6l4-5 2-4 4-6c4-9 7-13 10-17l4-6 4-6 4-6c0-1 3-3 4-2l5 1zm-522 41l-5 4 3-4 4-5h2l-4 5zm38 3l-12 24-4 7c-2 8-16 28-19 28l2-8c2-3 3-6 1-8l-2 1c-2 2-4 1-4-1 0-3 2-7 7-12 8-9 12-15 14-19 2-2 3-4 5-4s5-3 5-4c0-3 5-6 7-4zm-22 7l-1 2v-2c1-3 2-2 1 0zm450 85l-1 1v-1l1-1v1z"/>
    <path d="M164 104l-4 17c0 4 3 4 4 0 1-6 5-6 7-1 1 4 3 5 4 1 1-2 1-3-2-9-3-7-6-10-9-8zM415 164l-15 6-17 7c-6 2-11 3-17 3l-9 2c-3 2-2 4 1 5 4 2 25-2 34-6 14-6 18-5 10 2l-10 19-3 6c-2 5-2 5-1 7 2 1 2 1 4-1l4-4a123 123 0 0 1 18-35l6-6c4-2 5-3 5-5 0-3-3-3-10 0z"/>
    <path d="M379 189c-7 3-13 7-14 9 0 1 5 2 8 0 2-1 3-1 2 4 0 3 2 5 4 3 3-2 8-10 9-13 2-5-2-7-9-3zM344 252c-1 4-1 6 2 8 4 1 5 8 5 32a107 107 0 0 1-2 31l-1 10v4c3 0 4-2 7-10a73 73 0 0 0 4-45l-2-11-1-8c-1-9-2-10-6-12l-4-3-2 4zM1027 191c-9 2-17 7-22 12l-5 8c-1 3-1 4 1 5 2 2 3 3 14 2 11 0 13 0 20-2 8-4 9-4 12-9 4-6 4-12 1-15s-4-3-9-3l-12 2zm5 5h7c4 0 5 0 5 2s-1 3-5 7-5 5-13 7c-14 3-19 3-19 2-1-2 3-9 7-12 4-4 11-7 13-6h5zM971 233l-10 3c-3 0-19 17-21 21-1 4 1 9 5 12 7 3 27 0 35-6l6-4c1 0 9-8 9-10l3-5c4-4 3-7-5-11-6-3-13-3-22 0zm17 3l1 6c0 4 0 4-4 8-5 5-21 14-26 14l-3 1h-7c-2 0-1-6 1-10 2-3 8-9 15-13 7-5 21-8 23-6zM1017 255c-6 3-10 10-8 14 1 2 7 4 12 4 4 0 8-4 10-8s0-7-4-9-6-2-10-1zm7 6c1 1-1 4-5 6h-4l2-5c2-3 6-4 7-1zM115 226c-4 1-7 4-8 9l-2 5 3 3c4 3 7 4 12 1 3-1 4-2 5-5 0-4 0-5-2-9-3-4-5-5-8-4zM260 256c-4 0-5 2-7 7-2 4-1 12 1 13 3 2 13-1 15-3 1-1 2-9 1-13l-5-5-5 1zM155 300c-6 2-7 3-9 9s0 14 5 22c4 5 4 5 3 8-2 3-1 6 1 6s5-4 7-8c2-2 4-4 9-6 10-5 16-10 17-16 1-5 1-7-4-10-3-2-6-3-13-4l-11-2c-1-1-3 0-5 1zm4 7c0 2-3 4-4 2-2-1 0-4 2-4l2 2z"/>
    <path d="M68 318l-1 3c-1 1 8 14 19 25l5 8c1 4 26 28 29 28l8 3 7 5c3 0 11 5 19 9l10 5 11 6c6 3 15 7 22 8 7 2 37-2 44-6a490 490 0 0 1 47-21l8-5c3-2 7-8 6-10 0-3-3-2-10 4s-30 16-43 20l-9 3c-6 4-9 5-35 7-9 0-10 0-15-2l-7-3-4-2-26-14a160 160 0 0 1-48-33l-8-10-13-14c-11-14-13-17-16-14z"/>
</svg>
